<svg class="hide-until-rendered-inline" xmlns="http://www.w3.org/2000/svg" viewBox="0 0 5000 1096.26">
  <path class="logo-words" d="M1729,459.23v250.1q0,5-5,5h-16.07q-5,0-5-5h0V472.45q-26.43,65.74-47.52,117.55h0q-8.92,22.14-17.5,43.41t-15.37,37.87q-6.78,16.61-11.07,27T1607.16,709h0a5.72,5.72,0,0,1-5.36,3.57h-16.08a5.56,5.56,0,0,1-3.57-.89,6.62,6.62,0,0,1-1.79-2.68h0l-98.61-236.52V709.33q0,5-5,5h-16.08q-5,0-5-5h0V459.23q0-7.5,1.25-8.75c.83-.84,3.75-1.25,8.75-1.25h26.8a8.87,8.87,0,0,1,4.11.71c.83.48,1.61,1.67,2.32,3.57h0l95,231.17,92.18-231.52a5.56,5.56,0,0,1,5.72-3.93H1719c5,0,7.92.41,8.76,1.25s1.25,3.75,1.25,8.75Zm100,250.1q0,5-5,5h-15.73q-5,0-5-5h0V526q0-5,5-5H1824q5,0,5,5h0Zm-30.37-255.82h0a17.14,17.14,0,0,1,5-12.32,16.22,16.22,0,0,1,12.15-5.18h0a17.71,17.71,0,0,1,17.51,17.5h0a16.23,16.23,0,0,1-5.19,12.15,17.1,17.1,0,0,1-12.32,5h0a17.07,17.07,0,0,1-17.15-17.15Zm110.76,164h0a159.9,159.9,0,0,0,2.68,30.54,82.08,82.08,0,0,0,8.39,24.12h0q7.86,12.87,19.12,19.65t27,6.79h0a43.32,43.32,0,0,0,25.18-7.5A65.18,65.18,0,0,0,2010,672a88,88,0,0,0,10.89-26.08,117.81,117.81,0,0,0,3.58-28.4h0a127.44,127.44,0,0,0-3.76-31.8,79.57,79.57,0,0,0-11.07-25.37,54,54,0,0,0-18-16.79q-10.72-6.07-25-6.07h0q-30.37,0-46.1,26.08h0a81.91,81.91,0,0,0-8.39,24.11A155.89,155.89,0,0,0,1909.43,617.51Zm139-182.22v274c0,3.33-1.66,5-5,5h-13.93c-3.34,0-5-1.67-5-5h0v-26.8Q2005.17,719,1962.31,719h0q-38.24,0-59.67-29.29h0Q1883,662.53,1883,617.51h0q0-100.39,79.32-100.4h0q21.43,0,38,8.58t24.12,22.15h0V435.29c0-3.33,1.66-5,5-5h13.93c3.34,0,5,1.67,5,5Zm155.43,279.4h0a87.87,87.87,0,0,1-29.66,5.36h0q-28.93,0-38.23-18.94h0q-6.07-12.86-6.07-45.37h0v-114h-33.59c-3.33,0-5-1.66-5-5h0V526q0-5,5-5h33.59V472.81c0-3.58,1.55-5.36,4.64-5.36h15c3.09,0,4.64,1.78,4.64,5.36h0V521h39.66c3.34,0,5,1.67,5,5h0v10.72c0,3.34-1.66,5-5,5h-39.66V667.88q0,31.8,25.73,31.8h0q10,0,22.51-4.29h0a4.25,4.25,0,0,1,3.39,0,2.82,2.82,0,0,1,1.61,2.86h0l.71,9.29Q2208.84,712.55,2203.84,714.69Zm184.72-96.83h0a107.24,107.24,0,0,0-4.47-31.44,94.28,94.28,0,0,0-12.33-26.08h0q-18.57-22.86-48.23-22.86h0a60.27,60.27,0,0,0-27,5.89,65.48,65.48,0,0,0-21.26,17h0a88.84,88.84,0,0,0-12.68,26.08,107.24,107.24,0,0,0-4.46,31.44h0a108.44,108.44,0,0,0,4.46,31.8,84,84,0,0,0,12.68,25.73h0q18.95,23.22,48.24,23.22h0a58.71,58.71,0,0,0,27-6.07,67.61,67.61,0,0,0,21.26-17.15h0a89,89,0,0,0,12.33-25.73A108.44,108.44,0,0,0,2388.56,617.86Zm26.44,0h0a121.9,121.9,0,0,1-6.08,39.13,114.66,114.66,0,0,1-16.08,31.62h0A87,87,0,0,1,2363,711.83q-17.33,8.22-39.48,8.22h0q-22.16,0-39.66-8.22a86.47,86.47,0,0,1-30-23.22h0A111.14,111.14,0,0,1,2238,657a125.31,125.31,0,0,1-5.9-39.13h0q0-43.23,21.8-70.74h0q25-31.08,69.67-31.08h0q22.51,0,39.66,7.68a78.73,78.73,0,0,1,29.65,23.4h0Q2415,575.35,2415,617.86ZM2730.13,526,2669.39,710.4c-.72,2.62-2.62,3.93-5.72,3.93h-21.08a5.57,5.57,0,0,1-5.72-3.93h0l-50.73-164.35q-13.21,41.44-26.44,82.18T2533.26,710h0q-1.08,4.29-6.43,4.29h-19.65a10.28,10.28,0,0,1-4.11-.71c-1.07-.48-1.85-1.67-2.32-3.58h0l-59.67-184a3.44,3.44,0,0,1,.36-3.39,3.6,3.6,0,0,1,3.21-1.61h16.44c2.85,0,5,1.67,6.43,5h0L2518.25,689q13.23-41.09,25.91-80.56t25.9-80.57h0q1.79-6.8,8.22-6.79h16.79c4.53,0,7.38,2.26,8.58,6.79h0L2653.31,689q13.58-42.15,26.26-81.46T2705.83,526h0a7.55,7.55,0,0,1,2.5-3.57,6.16,6.16,0,0,1,3.93-1.43h14.29a3.61,3.61,0,0,1,3.22,1.61,3.49,3.49,0,0,1,.36,3.39Zm196.51,65V709.33q0,5-5,5h-14.3q-5,0-5-5h0V596.78q0-32.87-11.79-46.62t-33.23-13.76h0q-28.93,0-44.12,16.08t-15.19,45h0V709.33c0,3.33-1.66,5-5,5h-14.29c-3.34,0-5-1.67-5-5h0V566.42q0-15.37-.18-23.94t-.9-16.44h0a3.73,3.73,0,0,1,1.26-3.75,6,6,0,0,1,3.75-1.25h12.86q5,0,5,5h0v19.65q10-15.36,24.12-22.51t38.76-7.14h0q33.95,0,51.1,19.65t17.15,55.38Zm351.57,97.54h0a6.37,6.37,0,0,1,3.93-.18,2.47,2.47,0,0,1,1.79,2.68h0l.71,13.93q.36,4.65-5,6.43h0a138.69,138.69,0,0,1-24.29,5.72A229.16,229.16,0,0,1,3223.9,719h0q-62.16,0-99-37.87h0a116.75,116.75,0,0,1-27-43.23q-8.76-24.64-8.75-55.73h0q0-61.1,36.8-99h0q37.51-37.87,97.89-37.87h0q8.58,0,15.55.35t13.57,1.08q6.61.7,13,1.78t13.58,2.86h0q5.36,1.08,5,6.79h0l-.71,14.29q-.72,5-5.36,3.22h0a141,141,0,0,0-26.44-6.26,223.61,223.61,0,0,0-28.23-1.6h0q-50.37,0-80.39,32.15h0q-27.87,31.08-27.87,82.18h0q0,25.73,6.79,46.44a98.78,98.78,0,0,0,20.73,36.09h0q28.93,32.15,80.74,31.8h0q15-.36,29.84-2.15T3278.21,688.61Zm204.37-70.75h0a107.58,107.58,0,0,0-4.46-31.44,94.28,94.28,0,0,0-12.33-26.08h0q-18.59-22.86-48.23-22.86h0a60.24,60.24,0,0,0-27,5.89,65.38,65.38,0,0,0-21.26,17h0a88.59,88.59,0,0,0-12.68,26.08,107.24,107.24,0,0,0-4.47,31.44h0a108.44,108.44,0,0,0,4.47,31.8,83.81,83.81,0,0,0,12.68,25.73h0q18.94,23.22,48.24,23.22h0a58.74,58.74,0,0,0,27-6.07,67.61,67.61,0,0,0,21.26-17.15h0a89,89,0,0,0,12.33-25.73A108.77,108.77,0,0,0,3482.58,617.86Zm26.44,0h0A121.9,121.9,0,0,1,3503,657a114.66,114.66,0,0,1-16.08,31.62h0A87,87,0,0,1,3457,711.83q-17.34,8.22-39.48,8.22h0q-22.16,0-39.66-8.22a86.59,86.59,0,0,1-30-23.22h0A111.14,111.14,0,0,1,3332,657a125.31,125.31,0,0,1-5.89-39.13h0q0-43.23,21.79-70.74h0q25-31.08,69.68-31.08h0q22.5,0,39.66,7.68a78.81,78.81,0,0,1,29.65,23.4h0Q3509,575.35,3509,617.86Zm205.8,91.47h0c0,3.33-1.66,5-5,5H3697c-3.34,0-5-1.67-5-5h0V679.67q-9.3,21.45-24.84,30.91T3628,720.05h0q-66.81,0-66.81-74.68h0V526c0-3.33,1.66-5,5-5h14.29c3.34,0,5,1.67,5,5h0v112.9q0,60.75,46.45,60.74h0a50.64,50.64,0,0,0,24.48-5.89,55.45,55.45,0,0,0,18.4-16.08A74.69,74.69,0,0,0,3686.24,654a94.09,94.09,0,0,0,3.57-28.58h0V526q0-5,5-5h14.3q5,0,5,5h0V669.67q0,11.79.18,21.08T3714.82,709.33ZM3934.2,591.07V709.33q0,5-5,5h-14.29q-5,0-5-5h0V596.78q0-32.87-11.79-46.62t-33.22-13.76h0q-28.95,0-44.13,16.08t-15.19,45h0V709.33c0,3.33-1.66,5-5,5h-14.29q-5,0-5-5h0V566.42q0-15.37-.18-23.94t-.89-16.44h0a3.73,3.73,0,0,1,1.25-3.75,6,6,0,0,1,3.75-1.25h12.86c3.34,0,5,1.67,5,5h0v19.65q10-15.36,24.12-22.51T3866,516h0q33.95,0,51.09,19.65t17.15,55.38Zm57.52,99.68h0a117.75,117.75,0,0,0,45,8.93h0q19.29,0,31.8-9.47t12.51-25.54h0q0-9.28-7-18a58.59,58.59,0,0,0-17-14.47h0q-11.09-6.07-22.69-11.62t-22.33-11.61h0q-12.87-7.14-18.94-17.68a43.4,43.4,0,0,1-6.07-22h0q0-13.21,5-23.22a49.14,49.14,0,0,1,13.58-16.79,56.39,56.39,0,0,1,20-10A89.48,89.48,0,0,1,4050,516h0a169.58,169.58,0,0,1,23.58,1.43,148.89,148.89,0,0,1,20,4.29h0a10.55,10.55,0,0,1,3.75,2.14,4.13,4.13,0,0,1,1.25,3.93h0l-1.07,10.72c-.24,1.9-.95,3.09-2.14,3.57a4.61,4.61,0,0,1-3.57,0h0a89.91,89.91,0,0,0-17.87-4.47,158,158,0,0,0-21.44-1.25h0q-41.45,0-41.44,32.87h0q0,7.15,5.54,13.58t18.75,12.86h0q11.45,5.71,22.51,10.9t23.94,12.33h0q11.09,6.07,18.4,18.57a52.84,52.84,0,0,1,7.33,27.16h0q0,14.3-5.72,24.65a50.58,50.58,0,0,1-15.36,17.15,69.91,69.91,0,0,1-22.16,10.18,97.42,97.42,0,0,1-25.72,3.4h0q-7.86,0-14.11-.36t-11.8-1.07q-5.53-.72-11.25-1.79T3989.22,714h0q-5-1.79-4.64-6.43h0l1.43-13.22Q3986.72,688.61,3991.72,690.75Zm176.86-86.46h107.19a107.65,107.65,0,0,0-2.86-26.08,67.31,67.31,0,0,0-8.93-20.73h0q-13.21-21.08-38.23-21.08h0q-25.72,0-41.8,21.44h0A95.73,95.73,0,0,0,4173.23,580a82.57,82.57,0,0,0-4.65,24.3Zm120.77,20.36H4168.58q-.36,17.86,4.11,31.62a61.55,61.55,0,0,0,13,23.05,58.21,58.21,0,0,0,20.55,14.29,68.48,68.48,0,0,0,26.62,5h0a127.46,127.46,0,0,0,26.79-2.68,81.51,81.51,0,0,0,23.23-8.75h0q4.64-2.14,4.64,2.5h0v16.08q0,3.21-3.93,5h0a130.12,130.12,0,0,1-24.65,7,156.91,156.91,0,0,1-27.87,2.33h0q-43.95,0-66.46-25.55t-22.51-77h0q0-45.37,22.51-73.25h0Q4188.23,516,4224.32,516h0q20,0,34.66,7.14a67.14,67.14,0,0,1,25,21.44h0q18.23,25.36,18.22,67.88h0q0,4.65-.18,7.15a5.46,5.46,0,0,1-1.25,3.57,5.75,5.75,0,0,1-3.75,1.25q-2.69.18-7.68.18Zm91.11,84.68q0,5-5,5h-15.72q-5,0-5-5h0v-274q0-5,5-5h15.72q5,0,5,5h0Zm90,0c0,3.33-1.66,5-5,5h-15.72q-5,0-5-5h0v-274q0-5,5-5h15.72c3.34,0,5,1.67,5,5h0Zm89.68,0c0,3.33-1.66,5-5,5h-15.72q-5,0-5-5h0V526q0-5,5-5h15.72c3.34,0,5,1.67,5,5h0ZM4529.8,453.51h0a17.11,17.11,0,0,1,5-12.32A16.21,16.21,0,0,1,4547,436h0a17.69,17.69,0,0,1,17.51,17.5h0a16.22,16.22,0,0,1-5.18,12.15,17.1,17.1,0,0,1-12.33,5h0a17.09,17.09,0,0,1-17.15-17.15Zm248,137.56V709.33c0,3.33-1.66,5-5,5h-14.29q-5,0-5-5h0V596.78q0-32.87-11.79-46.62t-33.23-13.76h0q-28.94,0-44.13,16.08t-15.18,45h0V709.33q0,5-5,5h-14.29q-5,0-5-5h0V566.42q0-15.37-.17-23.94t-.9-16.44h0a3.73,3.73,0,0,1,1.25-3.75,6,6,0,0,1,3.75-1.25h12.87q5,0,5,5h0v19.65q10-15.36,24.12-22.51t38.76-7.14h0q33.94,0,51.09,19.65t17.15,55.38Zm198.66,25.72h0q0-38.22-15.72-58.95t-42.52-20.72h0q-28.93,0-43.59,19.29t-14.65,61.1h0a88.71,88.71,0,0,0,4.29,28.22,67.94,67.94,0,0,0,11.79,22,54.58,54.58,0,0,0,17.86,14.3,49.71,49.71,0,0,0,22.51,5.18h0A55.08,55.08,0,0,0,4940,682a56,56,0,0,0,19.11-14.65A71.67,71.67,0,0,0,4971.77,645,82.53,82.53,0,0,0,4976.42,616.79ZM4853.51,761.13h0q-4.29-1.07-3.57-5.36h0l1.07-15.72c0-3.09,1.55-3.81,4.64-2.14h0a131.41,131.41,0,0,0,26.09,8.75,129.24,129.24,0,0,0,27.15,2.68h0q32.52,0,48.77-19.83t18.4-54.12h0a54.57,54.57,0,0,1-24.29,24.29A77.34,77.34,0,0,1,4916,707.9h0a81.68,81.68,0,0,1-32.52-6.43,77,77,0,0,1-26.08-18.22,86.31,86.31,0,0,1-17.51-28.59,103.25,103.25,0,0,1-6.43-37.15h0q0-23.94,4.47-42.7t14.11-31.62a62,62,0,0,1,25-19.65q15.36-6.78,37.16-6.79h0q18.93,0,33.41,6.26t29.47,22.33h0l-.71-19.3q0-5,5-5H4995q5,0,5,5h0V669q0,23.22-5.9,42t-17.5,31.79a76.22,76.22,0,0,1-28.76,20q-17.16,7-39.31,7h0a178.59,178.59,0,0,1-28.22-2A189.48,189.48,0,0,1,4853.51,761.13Z"/>
  <rect class="logo-divider" x="1271.92" width="37.8" height="1096.26"/>
  <g class="logo-bike">
    <path d="M1181.45,648.59c-.57-1.92-4.62-3.72-6.76-6.75,1.57-3.39,5.25-5.86,5.38-7.85.26-2.52.35-3.41-1.23-12.14s-1.79-9-2.84-11.28c-.9-1.82-5.18-2.89-7.8-5.51,1-3.61,4.13-6.67,4-8.64-.19-2.49-.28-3.41-3.3-11.74s-3.32-8.57-4.74-10.6c-1.23-1.62-5.62-2-8.66-4.07.35-3.72,2.91-7.28,2.38-9.18-.61-2.43-.85-3.3-5.29-11s-4.79-7.83-6.54-9.6c-1.44-1.42-5.86-1-9.22-2.51-.33-3.72,1.57-7.66.74-9.47-1-2.27-1.4-3.11-7.11-9.91s-6.05-6.88-8.11-8.33c-1.62-1.09-5.73.07-9.27-.76l-.37-.37c-.83-3.55.33-7.63-.79-9.23-1.4-2.06-1.92-2.78-8.72-8.51s-7.15-5.75-9.42-6.8c-1.86-.83-5.84,1.1-9.56.79-1.55-3.37-1.11-7.74-2.51-9.16-1.78-1.79-2.41-2.43-10.08-6.84s-8-4.42-10.48-5.05c-2-.51-5.51,2.1-9.2,2.45-2.17-3.09-2.47-7.48-4.11-8.62-2-1.46-2.76-2-11.11-5s-8.68-3-11.19-3.14c-2-.18-5.1,3-8.68,4-2.63-2.64-3.7-6.93-5.49-7.78-2.28-1.07-3.09-1.42-11.83-3s-9.07-1.38-11.57-1.16c-2,.17-4.46,3.85-7.82,5.44-3.07-2.14-4.86-6.16-6.8-6.69-2.41-.68-3.26-.89-12.16-.89s-9.18.21-11.61.89c-1.93.53-3.72,4.55-6.78,6.71-3.41-1.59-5.86-5.29-7.81-5.37-2.53-.29-3.43-.35-12.15,1.2s-9,1.79-11.33,2.88c-1.79.9-2.86,5.16-5.49,7.79-3.63-1-6.64-4.2-8.61-3.94-2.56.2-3.46.29-11.76,3.3s-8.53,3.28-10.61,4.79c-1.64,1.18-1.94,5.6-4.06,8.62-3.35-.29-6.37-2.17-8.36-2.21L816.22,361.55l0,0,7.5-3.39L789,281.59c7-11.52,14.54-25.53,14.8-40.53a35.59,35.59,0,0,0-.85-7.17A11.33,11.33,0,0,0,804.3,231s0,0,.14-.46a13.09,13.09,0,0,0,.21-2.18c.38-4.31-3.21-10-6.86-11.52a17.72,17.72,0,0,0-8.68-1.93c-8.33.15-17.56,2.84-28,5.29-10.28,2.5-21.19,4.77-28.43,4.75a24.69,24.69,0,0,1-4.43-.37v0a10.51,10.51,0,1,0-3.68,20.7,48.22,48.22,0,0,0,8.11.66,102,102,0,0,0,17.6-1.9c-3,2-7.71,3.58-16.81,3.71a96.09,96.09,0,0,1-10.19-.63,5.27,5.27,0,0,0-1.18,10.47,104.51,104.51,0,0,0,11.39.68h.16c12.41,0,20.37-3.17,25.36-7.76a30.87,30.87,0,0,0,6.82-9.84h.13c5.93-1.51,11.7-2.84,16.09-3.74a9.53,9.53,0,0,1,.75,4.09c.13,5.14-2.89,13.91-7.28,22a164,164,0,0,1-13.36,20.64c-2.34,3.19-3.85,4.94-3.85,4.94-2,2.36-3,3.87-3.63,6.78l-6.12,2.77,4.13,9.12c-8.2,3.81-22.15,10.26-39.73,18.41-14.47,6.47-30.83,14.45-47.79,23.51-17.15,8.85-35.42,18.32-53.73,27.79-36.57,18.86-72.61,38.61-99.85,53l-36.27,19.63L409.82,280.13c-.63-2.45-2.12-7.41-14.12-13l2.62-.13a26.44,26.44,0,0,0,14.3-5.92l16.44-14.83c4.9.09,8.53.35,9.45.88,3.19,1.81,22.67,2.27,29.91,2.27s18.61.46,20.42.46,7.24-4.53-1.35-10-21.32-16.33-58.93-16.33H317a72.36,72.36,0,0,1-19-2.71c-7.09-2.13-32.65-3.61-36.71-1.82s-3.35,6.19,3.63,12.73c4.68,4.35,12.9,12.17,17.51,14.47,3.59,1.81,16.31,6.91,30,10.21l7.24,8a20.37,20.37,0,0,0,13.62,5.91,6.12,6.12,0,0,0,.63,0l22.81-1.18a19.77,19.77,0,0,0-.27,3.3c0,9.62,5,17.73,18.35,18a42.81,42.81,0,0,0,16.09-3.46c.07,0,.13.07.22.09l74.69,193.13a132,132,0,0,0-22.13,10.12,10.73,10.73,0,0,0-4.41,1.82l-44.56,32.16c-1-1.31-2.34-3-4.88-6.06-5.69-6.8-6.06-6.88-8.11-8.33-1.62-1.09-5.73.07-9.27-.76l-.37-.37c-.84-3.55.32-7.64-.79-9.23-1.4-2.06-1.93-2.78-8.73-8.51s-7.15-5.75-9.42-6.8c-1.86-.83-5.84,1.1-9.55.79-1.56-3.37-1.12-7.74-2.52-9.16-1.77-1.79-2.4-2.43-10.08-6.84s-8-4.42-10.47-5.06c-2-.5-5.51,2.1-9.21,2.45-2.16-3.08-2.47-7.47-4.11-8.61-2-1.47-2.75-2-11.1-5s-8.68-3-11.2-3.15c-2-.17-5.09,3-8.68,4-2.62-2.64-3.69-6.93-5.49-7.78-2.27-1.07-3.08-1.42-11.83-3s-9.07-1.38-11.56-1.16c-2,.17-4.46,3.84-7.83,5.44-3.06-2.14-4.85-6.17-6.8-6.69-2.4-.68-3.26-.9-12.16-.9s-9.18.22-11.61.9c-1.92.52-3.71,4.55-6.77,6.71-3.41-1.59-5.86-5.29-7.81-5.38-2.54-.28-3.43-.35-12.16,1.21s-9,1.79-11.32,2.88c-1.8.9-2.87,5.16-5.49,7.79-3.63-1-6.65-4.2-8.61-3.94-2.56.2-3.46.28-11.77,3.3s-8.53,3.28-10.6,4.79c-1.64,1.18-1.95,5.6-4.07,8.62-3.76-.33-7.3-3-9.18-2.39-2.49.64-3.37.85-11,5.29s-7.81,4.75-9.62,6.58c-1.4,1.43-.94,5.82-2.47,9.17-3.76.32-7.72-1.67-9.47-.77-2.34,1.07-3.17,1.44-9.93,7.13s-6.86,6-8.35,8.13c-1.09,1.64.09,5.77-.74,9.27a4,4,0,0,1-.29.29c-3.58.87-7.72-.37-9.27.83-2.12,1.42-2.86,2-8.55,8.7s-5.72,7.13-6.8,9.49c-.83,1.81,1.12,5.81.79,9.49-3.41,1.57-7.78,1.07-9.12,2.51-1.83,1.8-2.47,2.43-6.91,10.1s-4.37,8-5,10.48c-.51,2,2.09,5.55,2.42,9.2-3.1,2.17-7.5,2.43-8.59,4.09-1.47,2.1-2,2.84-5,11.15s-3,8.66-3.19,11.22c-.15,2,3,5.09,4,8.66-2.66,2.64-7,3.67-7.74,5.51-1.09,2.29-1.44,3.12-3,11.83s-1.4,9-1.2,11.58c.21,2,3.89,4.51,5.44,7.81C5.39,645,1.37,646.73.91,648.66.21,651.11,0,652,0,660.84s.17,9.18.81,11.61c.56,1.92,4.63,3.73,6.75,6.77-1.62,3.39-5.27,5.86-5.38,7.83-.26,2.52-.35,3.41,1.23,12.14s1.77,9,2.84,11.3c.9,1.81,5.2,2.91,7.81,5.51-1,3.63-4.18,6.65-3.94,8.61.17,2.56.26,3.46,3.28,11.75s3.32,8.57,4.79,10.62c1.18,1.62,5.62,1.95,8.63,4-.35,3.76-3,7.3-2.36,9.18.61,2.47.86,3.32,5.29,11s4.77,7.83,6.54,9.62c1.42,1.38,5.86.94,9.21,2.49.32,3.76-1.64,7.72-.73,9.47,1,2.34,1.4,3.12,7.13,9.9s6,6.89,8.07,8.35c1.66,1.12,5.86-.06,9.42.84l.16.13c.89,3.6-.31,7.76.87,9.33,1.4,2.12,2,2.82,8.73,8.51s7.15,5.75,9.44,6.82c1.84.81,5.82-1.12,9.51-.79,1.55,3.41,1.1,7.79,2.54,9.16,1.75,1.82,2.38,2.43,10.08,6.83s8,4.39,10.47,5.07c2,.46,5.53-2.1,9.23-2.43,2.14,3.08,2.45,7.48,4.11,8.59,2,1.49,2.8,2,11.13,5s8.66,3,11.21,3.19c2,.13,5.06-3,8.64-4,2.65,2.67,3.7,6.93,5.55,7.74,2.28,1.12,3.09,1.44,11.79,3s9,1.35,11.59,1.2c2-.22,4.48-3.87,7.83-5.47,3.06,2.17,4.83,6.19,6.8,6.67,2.42.68,3.27.88,12.13.88s9.18-.22,11.61-.84c2-.54,3.74-4.56,6.78-6.73,3.39,1.6,5.86,5.27,7.85,5.38,2.49.26,3.39.31,12.11-1.23s9-1.81,11.3-2.84c1.82-.92,2.89-5.18,5.49-7.8,3.63,1,6.67,4.17,8.66,4,2.52-.19,3.41-.3,11.7-3.3s8.55-3.32,10.62-4.74c1.62-1.23,2-5.62,4.07-8.66,3.74.35,7.28,2.93,9.23,2.38,2.43-.63,3.28-.89,10.95-5.29s7.83-4.79,9.64-6.54c1.4-1.46.94-5.86,2.48-9.22,3.73-.31,7.69,1.64,9.51.74,2.27-1,3.12-1.42,9.86-7.11s6.86-6.05,8.37-8.11c1.09-1.66-.09-5.81.79-9.35l.2-.22c3.6-.88,7.74.32,9.35-.86,2.08-1.44,2.82-2,8.49-8.72s5.73-7.15,6.82-9.42c.81-1.88-1.14-5.84-.83-9.54,3.41-1.57,7.78-1.09,9.18-2.56,1.79-1.74,2.43-2.38,6.82-10.07s4.42-8,5.1-10.46c.48-2-2.12-5.53-2.45-9.24,3.08-2.15,7.48-2.45,8.59-4.12,1.47-2,2-2.79,5-11.1l.11-.29,63.19-20a44.9,44.9,0,0,0,11.28,1.53A47.51,47.51,0,0,0,522,712.85c3.94-1.9,5.36-5.38,4.16-8.68a43.81,43.81,0,0,0,6.25-4.5c2.73,2.27,6.49,2,9.55-1.21a48.29,48.29,0,0,0,9.73-16.74,47.51,47.51,0,0,0,2.15-16.34,103.52,103.52,0,0,0,23.13-15A173.27,173.27,0,0,0,601,623c7.26-10.45,14-20.38,21.21-32.45C635.12,568,648.89,544,662.64,519.9c14-23.79,27.14-48.56,39.45-71.87,6.18-11.63,12.18-22.87,17.84-33.52,2.45-4.66,4.87-9.16,7.17-13.56l8.59-13.75c2.8-4.5,5.23-4.61,7.35-7.19l3.08-3.11c1.58-1,3.13-1.94,4.59-2.86,5.91-3.76,10.76-7.28,16.21-9.45,4-2,7.15-3.5,9.68-4.72l7.35,16.2,7.48-3.39,48.49,107.51a17.83,17.83,0,0,1-1.2,4.9c-3.76.33-7.72-1.66-9.47-.77-2.34,1.07-3.17,1.45-9.93,7.13s-6.86,6-8.35,8.13c-1.09,1.64.09,5.78-.74,9.27-.09.09-.18.2-.28.29-3.59.87-7.72-.37-9.28.83-2.12,1.42-2.86,2-8.54,8.7s-5.73,7.13-6.8,9.49c-.84,1.82,1.11,5.82.78,9.49-3.41,1.57-7.78,1.07-9.11,2.51-1.84,1.8-2.48,2.43-6.91,10.11s-4.38,8-5,10.47c-.51,2,2.1,5.55,2.42,9.2-3.1,2.17-7.5,2.43-8.59,4.09-1.46,2.1-2,2.85-5,11.15s-3,8.66-3.19,11.22c-.15,2,3,5.09,4,8.66-2.67,2.64-7,3.67-7.75,5.51-1.09,2.29-1.44,3.13-3,11.83s-1.4,9.05-1.2,11.59c.22,2,3.89,4.5,5.44,7.8-2.16,3.08-6.19,4.86-6.65,6.78-.7,2.45-.91,3.32-.89,12.18s.17,9.18.81,11.61c.57,1.92,4.63,3.74,6.75,6.78-1.61,3.38-5.27,5.86-5.38,7.82-.26,2.52-.35,3.41,1.23,12.14s1.77,9,2.84,11.3c.9,1.82,5.2,2.91,7.81,5.51-1,3.63-4.18,6.65-3.94,8.62.18,2.55.26,3.45,3.28,11.74s3.32,8.57,4.79,10.62c1.18,1.62,5.62,2,8.64,4.05-.35,3.76-3,7.3-2.37,9.18.62,2.47.86,3.33,5.3,11s4.76,7.83,6.53,9.62c1.42,1.38,5.86.94,9.21,2.49.33,3.76-1.64,7.72-.72,9.47,1,2.34,1.4,3.13,7.12,9.9s6,6.89,8.07,8.36c1.66,1.11,5.86-.07,9.43.83l.15.13c.9,3.61-.31,7.76.87,9.34,1.4,2.12,1.95,2.82,8.73,8.5s7.15,5.75,9.44,6.82c1.84.81,5.82-1.11,9.51-.78,1.56,3.41,1.1,7.78,2.54,9.16,1.75,1.81,2.38,2.42,10.08,6.82s8,4.39,10.47,5.07c2,.46,5.53-2.1,9.23-2.43,2.14,3.09,2.45,7.48,4.11,8.6,2.06,1.48,2.8,2,11.13,5s8.66,3,11.22,3.19c2,.14,5.05-3,8.63-4,2.65,2.67,3.7,6.93,5.56,7.74,2.27,1.12,3.08,1.45,11.78,3s9.05,1.35,11.59,1.2c2-.22,4.48-3.87,7.83-5.47,3.06,2.17,4.83,6.19,6.8,6.67,2.42.68,3.28.88,12.13.88s9.18-.22,11.61-.83c2-.55,3.74-4.57,6.78-6.74,3.39,1.6,5.86,5.27,7.85,5.38,2.49.26,3.39.31,12.11-1.22s9-1.82,11.31-2.85c1.81-.91,2.88-5.18,5.48-7.8,3.63,1,6.67,4.18,8.66,4,2.52-.2,3.41-.31,11.7-3.31s8.55-3.32,10.63-4.74c1.61-1.22,1.94-5.62,4.06-8.66,3.74.35,7.28,2.93,9.23,2.39,2.43-.64,3.28-.9,11-5.3s7.83-4.78,9.65-6.53c1.4-1.47.94-5.86,2.47-9.23,3.74-.31,7.69,1.64,9.51.74,2.27-1.05,3.12-1.42,9.86-7.1s6.86-6.06,8.37-8.11c1.1-1.67-.08-5.82.79-9.36a2.19,2.19,0,0,0,.2-.22c3.6-.88,7.74.33,9.36-.85,2.07-1.45,2.82-2,8.48-8.73s5.73-7.15,6.82-9.42c.81-1.88-1.14-5.84-.83-9.53,3.41-1.58,7.78-1.1,9.18-2.56,1.8-1.75,2.43-2.39,6.82-10.08s4.42-8,5.1-10.45c.48-2-2.12-5.54-2.45-9.25,3.08-2.14,7.48-2.45,8.59-4.11,1.47-2.06,2-2.8,5-11.11s3-8.66,3.19-11.19c.13-2-3.06-5.1-4-8.68,2.64-2.63,6.91-3.7,7.74-5.51,1.07-2.28,1.44-3.11,3-11.83s1.4-9.06,1.21-11.55c-.22-2-3.89-4.48-5.47-7.83,2.17-3.06,6.19-4.85,6.67-6.77.68-2.45.92-3.33.9-12.2C1182.3,651.35,1182.08,651,1181.45,648.59ZM384,262.29c-2.76-4.57-7.26-7.61-12.4-7.61-5.6,0-10.47,3.61-13.07,8.94l-24.86,1.27a14.61,14.61,0,0,1-9.95-4.11l-2.28-2.49a73.86,73.86,0,0,0,12.86,1.09c19.79-.31,27.66-10,34.9-11.35s21.31-1.35,21.31-1.35c5.14,0,19-.46,30.55-.48L409,257a21,21,0,0,1-11,4.53Zm57.72,395.38c0-6.08-.26-6.91-.81-9.06-.57-1.92-4.61-3.71-6.75-6.75,1.57-3.39,5.24-5.86,5.37-7.85a20.48,20.48,0,0,0-.3-6.61l30.32.44a51.51,51.51,0,0,0-9.24,11.22c-2.28,4.24-.9,8.15,2.75,9.92a46.6,46.6,0,0,0-2.25,7.22,6.15,6.15,0,0,0-5.93,1.64Zm-172-1.89A45.83,45.83,0,0,0,267,643.54l25.21-18.21,94.92,1.33a168.45,168.45,0,0,1,3.21,30.44Zm-16.35-31,2.27,0-1.2.86C254,625.37,253.67,625.07,253.3,624.78ZM299.65,620l66-47.62a168.73,168.73,0,0,1,20.13,48.82Zm216.26-49.72-3,39.92A8,8,0,0,0,516,617l-.48-.11c-4.62-.81-7.87,1.53-8.57,5.42-1.08-.07-2.08-.33-3.17-.33-.38,0-.7.09-1.08.11l5.71-117.3a52.56,52.56,0,0,1,7.59-8.68l-4.75,63.1A13.49,13.49,0,0,0,515.91,570.23Zm-38.09-53.31s.46.29,1.25.68l3.67,101.85a49.91,49.91,0,0,0-5.92,3l-38.55-.52v0c-1.51-8.7-1.79-9-2.84-11.28-.9-1.81-5.18-2.89-7.81-5.51,1-3.61,4.13-6.67,4-8.64-.2-2.49-.29-3.41-3.3-11.74s-3.33-8.57-4.75-10.6c-1.22-1.62-5.62-2-8.66-4.07.35-3.71,2.91-7.28,2.39-9.18-.61-2.43-.86-3.3-5.29-11a72.27,72.27,0,0,0-4.68-7.54l42.09-30.39C463.81,504.83,477.82,516.92,477.82,516.92ZM221,830A169.55,169.55,0,1,1,353.13,554.38L263,619.45l-18.45-.27a44.63,44.63,0,1,0-19.24,84.88c.59,0,1.14-.15,1.7-.17a14.75,14.75,0,1,0,8.07-1,44.62,44.62,0,0,0,31-25.31L389.47,679a168.27,168.27,0,0,1-24.67,71l-98.95,31.34a14.33,14.33,0,0,0,1.57-6.32A14.48,14.48,0,1,0,253,789.42a14.24,14.24,0,0,0,4.3-.87l.35,1.05,102.55-32.47A169.13,169.13,0,0,1,221,830ZM427.66,715.89c2.65-2.62,6.91-3.69,7.75-5.51,1.07-2.27,1.44-3.1,3-11.83s1.4-9,1.2-11.54c-.22-2-3.63-4.35-5.27-7.55l19.77.22c.2.7.24,1.34.46,2a48,48,0,0,0,9.73,16.75c3.23,3.37,7.26,3.41,10.1.7a42.71,42.71,0,0,0,6,4.57c-1.57,3.22-.48,6.58,3,8.7l-52.59,16.64a19.52,19.52,0,0,0,.88-4.48C431.82,722.54,428.63,719.48,427.66,715.89ZM685,397.65c-5,10.63-10.37,21.82-15.88,33.39-10.91,23.18-22.65,47.95-35.68,72.59-12.66,24.66-25.32,49.35-37.19,72.48-5.6,10.54-12.46,21.76-18.39,31.14a167.23,167.23,0,0,1-18.72,24.18,88.85,88.85,0,0,1-12.35,9.75,9.56,9.56,0,0,0-.61-2,45.54,45.54,0,0,0-24.38-20.45,8.08,8.08,0,0,0,7.54-7.34l3-40a13.38,13.38,0,0,0,6.23-10.19l6.23-82.91a13.66,13.66,0,0,0-12.59-14.65c-4.73-.55-8.94,1.82-11.68,5.42H510a253.28,253.28,0,0,0-25.11,5.25l-3.38-8.77,38.91-18c28-12.66,65.16-30.09,102.68-46.55,18.72-8.25,37.48-16.49,55.06-24.23q12.26-5.58,23.54-10.28c-2.64,4.42-5.4,9-8.24,13.74Q689.28,388.69,685,397.65ZM961.55,830A169.4,169.4,0,0,1,860,525l73.16,162.23a13.64,13.64,0,0,0,12.44,8.05,14,14,0,0,0,5.62-1.2,13.57,13.57,0,0,0,7.26-8.18,24.05,24.05,0,0,0,3,.61,26,26,0,1,0-18.57-44L883.23,510.14A169.52,169.52,0,1,1,961.55,830Z"/>
    <rect x="524.82" y="503.51" width="58.9" height="16.4" transform="translate(2.58 1026.21) rotate(-85.72)"/>
  </g>
</svg>
