<svg version="1" xmlns="http://www.w3.org/2000/svg" width="1333.333" height="1333.333" viewBox="0 0 1000.000000 1000.000000"><path d="M465 1.1c-86.1 5.8-170.1 34.5-242.8 83.1-62.6 41.8-114.7 97-153.7 162.8-7.9 13.4-22.4 42.1-28.5 56.5-6 14-15.1 38.7-14.6 39.3.3.2 22-11 48.3-25.1 100.3-53.5 174.2-91.3 221.7-113.2 19.8-9.1 36.2-16.8 36.4-17 .3-.3-.7-3.1-2.1-6.4l-2.5-5.9 3.9-1.5c2.6-1 4.2-2.5 5-4.4.6-1.5 3.6-6.2 6.8-10.3 12-15.5 22.6-33.9 26.6-45.9 1.8-5.4 2.6-15.4 1.3-16.6-.8-.9-21.2 4.1-21.6 5.3-.1.5-1.6 3-3.2 5.6-3.3 5.1-9.8 10.2-16.5 12.8-12.3 4.8-38.3 4.5-41.7-.6-1.4-2.1-.8-6.6 1.2-8.6 1.8-1.8 2.9-2 11.8-1.4 10.3.7 22.7-.8 25.8-3.1 1.5-1.1.9-1.1-3.7-.3-2.9.5-9.9.9-15.4 1-8 .1-10.9-.3-14.6-1.9-7.6-3.4-10.3-12.5-5.6-19.4 3.4-5 5.9-5.9 17.3-5.9 11.7 0 20.6-1.4 43.4-6.9 22.9-5.5 31.6-6.6 37.9-5.1 9.3 2.2 14.8 9.3 13.7 17.9-.3 2.5-.7 9.5-.9 15.6-.5 13.8-3.3 23.1-12.3 40.4l-6.4 12.3 22 48.8c12.1 26.8 22 49.2 22 49.8 0 .6-2 1.8-4.5 2.8-2.5.9-4.5 1.8-4.5 2 0 .1 13.5 30.1 29.9 66.6l29.9 66.3 5.1 1.9c5.9 2.1 7 1.7 9-4.1s3.5-6.8 13.9-10.7c16.6-6 17.6-6.1 22.7-3.2 2.4 1.4 5 2.6 5.8 2.6.7 0 2.6-2.2 4-4.8 3-5.5 4.6-6.2 19-8.8 12.7-2.2 15.1-1.9 20.5 2.2l4.6 3.5 4.4-4.5c5.1-5.4 7.9-6 24.3-5.4l11.1.3 4.3 5 4.3 4.9 4.8-3.7c5.6-4.4 7.9-4.6 22.1-1.8 13.3 2.6 14.9 3.3 17.3 8.1 1.2 2.3 2.7 4.3 3.4 4.6.8.3 3.7-.7 6.6-2.1l5.2-2.7 8.7 2.7c4.7 1.5 11.4 4 14.7 5.5 5.8 2.6 6.3 3.1 7.9 7.9.9 2.8 2.1 5.3 2.6 5.7.5.3 3.2-.2 6-1.1 6.2-2.1 8.1-1.6 19.2 4.7 11.8 6.7 14.3 9 15.1 13.5 1.4 7.9 1.2 7.6 8 6.9 5.8-.6 6.6-.4 10.7 2.3 2.4 1.6 7.8 6.1 11.9 9.9l7.5 6.9.5 6.4.5 6.4 6 .5c7.2.7 8.4 1.4 15.5 9.7 10.3 12 11.2 13.9 10.4 20.9-.7 6.8-1 6.5 6.6 7.9 4.9 1 7.4 3.6 13.5 14.5 6.7 11.8 7.1 13.6 5 19.9-.9 2.8-1.4 5.5-1.1 6 .4.5 2.9 1.7 5.7 2.6 4.8 1.6 5.3 2.1 7.9 7.9 1.5 3.3 4 10 5.5 14.8l2.7 8.7-2.6 4.7c-1.4 2.6-2.6 5.3-2.6 6 0 .7 2 2.5 4.5 4 2.5 1.4 5 3.4 5.5 4.4 1.2 2.2 5 23.3 5 27.6 0 1.8-.4 3.5-.8 3.8-.5.3-2.2 2.4-3.7 4.7l-2.9 4.1 4.9 4.3 5 4.3V661.1l-4.7 4.4c-2.7 2.5-4.8 4.6-4.8 4.9 0 .2 1.6 2.3 3.5 4.6 2.8 3.4 3.5 5 3.5 8.5 0 4.8-3.6 23.9-5 26.6-.5.9-3 2.9-5.5 4.3-2.5 1.5-4.5 3.1-4.5 3.7 0 .5 1.2 3.3 2.6 6.2l2.7 5.1-2.3 7.1c-1.2 3.8-3.6 10.3-5.2 14.3-3 7.2-3.2 7.4-8.9 9.9-3.3 1.4-5.9 2.9-5.9 3.3 0 .4.7 2.7 1.6 5.1 2.1 6 1.3 9-5.2 20-6.9 11.6-8.8 13.7-13.3 14.5-7.7 1.3-7.4 1-6.7 7.8.6 5.8.4 6.5-2.5 10.9-1.7 2.6-6.2 8.1-10 12.2l-7 7.4-6.2.3-6.2.3-.3 6.2-.3 6.2-7.6 7c-12.4 11.5-14.5 12.6-22.7 12.6h-7l-1.1 5.5c-.9 4.8-1.6 5.8-5.8 9.1-2.7 2-8.6 5.6-13.3 8-8.4 4.3-8.5 4.3-13.2 3-8.1-2.3-8.4-2.2-10.6 3.8-1.8 5.1-2.3 5.6-8 8.1-3.4 1.5-10 4-14.8 5.5l-8.8 2.7-5.1-2.7c-2.8-1.4-5.7-2.4-6.5-2.1-.7.3-2.2 2.3-3.4 4.6-2.5 4.8-4.1 5.6-17.9 8.1-14.6 2.7-16.1 2.5-21.1-1.6-2.3-1.9-4.5-3.5-4.9-3.5-.4 0-2.5 2-4.7 4.4-3.7 4.1-4.3 4.4-10.7 5.1-3.7.4-10.7.4-15.5 0-8.7-.7-8.7-.7-12.8-5.1-2.3-2.4-4.5-4.4-5-4.4s-2.9 1.6-5.3 3.5c-5.1 4.1-6.2 4.2-20.2 1.6s-15.4-3.2-19-9.1l-3.1-5-5.4 2.9c-6.4 3.3-7.8 3.2-22.4-2.3-11.9-4.5-13.2-5.4-15.3-11.5-2-5.7-2.6-5.9-9.7-3.4l-4.8 1.7-7.4-3.8c-10.4-5.3-18.1-10.7-19.4-13.6-.7-1.4-1.6-4.3-2.1-6.5-.9-4.3-1.2-4.5-8.9-3.2-5 .8-9-1.5-20.6-12.3-7.7-7-7.8-7.3-7.8-12 0-7.5-.4-8-6.6-8-3.4 0-6.4-.6-8-1.6-1.4-1-6.1-6.2-10.6-11.7l-8-10 .6-6.8c.8-7.4 1-7.1-6.6-8.4-4.8-.9-7.7-4.2-14.3-16.1-5.9-10.6-6.3-12.8-4-19.5.9-2.4 1.2-4.5.8-4.7-.4-.2-3.3-1.5-6.3-3-5.3-2.6-5.6-2.9-8.7-10.7-1.7-4.4-4-10.9-4.9-14.4l-1.8-6.4 2.7-4.9c1.5-2.6 2.7-5.2 2.7-5.6 0-.5-1.7-1.8-3.8-3-6.1-3.4-7.1-5.2-9.2-16.1-3-15.2-2.7-18.9 1.5-24.2l3.4-4.4-4.7-4.8-4.7-4.8-.3-12.1c-.5-16-.1-17.8 5.3-23l4.5-4.3-3.5-4.4c-2.9-3.6-3.5-5.2-3.5-9.1 0-5.3 1.4-14 3.6-22.1 1.4-5 2.1-5.9 6.5-8.5 2.7-1.5 4.9-3.3 4.9-3.9 0-.5-1.1-2.8-2.5-5-1.3-2.2-2.5-5-2.5-6.2 0-3.1 7.6-24.3 9.8-27.3 1.1-1.4 3.8-3.2 6-4 6.1-2.3 6.6-3.1 4.8-7.5-2.6-6.2-2-9.3 3.8-19.5 6.5-11.6 10.4-16 13.9-16 1.4 0 3.7-.4 5.2-1 2.5-.9 2.5-1.2 1.9-7.2-.5-5.8-.4-6.6 2.3-10.6 1.6-2.4 6-7.7 9.7-11.8l6.7-7.4h5.8c3.1 0 6.2-.5 6.9-1.2.7-.7 1.2-3.7 1.2-6.8 0-5.3.2-5.8 4.3-9.6 5.9-5.7 14.8-12.9 17.5-14.3 1.6-.8 4.4-1 8.6-.6l6.3.7.6-3.1c.6-2.7-3.9-13.3-29.2-69.4-16.4-36.4-30.7-67.8-31.6-69.9l-1.8-3.6-4.5 1.9c-2.5 1.1-4.9 1.6-5.3 1.2-.4-.4-2.5-4.8-4.7-9.8-2.3-4.9-4.5-9.1-5.1-9.3-1.4-.5-20.6 9.4-30 15.5-20.8 13.5-23.4 17.2-58.1 82.8-33.8 63.8-38.6 72.5-78.2 142-34.8 60.9-55.3 94-68.9 111-14.7 18.6-30.4 32.5-46.6 41.3l-6.8 3.7-.6 7.5c-1 12.5-4.3 21.4-11.9 31.6-4.5 6-8.6 8.1-12.8 6.6-2.3-.8-3.3-.6-5.2.8l-2.3 1.7 5.3 11.4c39 82.8 99.5 153.1 175.2 203.7 56.7 37.9 119.6 63.5 185.3 75.7 128.7 23.8 258.9-2.4 367.5-73.9 29.5-19.5 53.5-39 78.5-64.1 71.6-71.6 119.8-162.8 138-261 24-129.8-2.9-261.3-75.7-370.3A499.012 499.012 0 0 0 724 53C671.8 26.8 620.9 11.3 563.5 4 533.3.2 495.7-.9 465 1.1z"/><path d="M222.5 283.6c-85.4 37.7-101.9 45-153.4 68.6-28.9 13.2-53.1 24.6-53.7 25.2-.6.6-1.9 4.7-2.8 9.1-1 4.4-2 8.9-2.2 10-.5 2-.2 2.1 9.8 1.7 9.1-.4 10.6-.7 12.8-2.7 11-10.3 28.9-2.2 29 13 0 2.8-1.8 29.1-4 58.4-4.2 56-4.5 58-9.5 61.9-2.1 1.7-2.4 3.3-4.4 29.1-1.2 15-2.6 28.1-3.1 29.2-.6 1-2.5 2.6-4.2 3.5l-3.2 1.7 6.9 3.5c7.9 4 20 15.3 22.9 21.5l1.7 3.8 3.2-2.3c15.4-10.7 28-26.3 48.4-60.3 15.5-25.8 77.6-147.7 109.8-215.5 22.1-46.7 29.1-60.6 34.6-69.7 2.3-3.8 4.3-7.1 4.6-7.6.2-.4.1-.7-.4-.6-.4 0-19.7 8.3-42.8 18.5zM575 427.5c-14.3 2-27.9 5.2-40.4 9.4-14.7 5-32.8 13.1-32.2 14.5 1.8 4.6 76.8 170.2 77.2 170.5.2.2 1.4-.5 2.7-1.7 1.2-1.1 4.9-3.3 8.2-4.9 4.9-2.2 7.4-2.7 13.5-2.7 25.5.1 41.4 27.2 29.2 49.7-5.2 9.7-16.4 16.8-27.3 17.2-5.4.2-6.1.5-8.2 3.5-3.2 4.8-6.9 7.2-12.1 7.7-6.1.7-12.9-1.9-16-6-1.3-1.8-23.6-50.5-49.6-108.2-26-57.8-47.6-105.3-47.9-105.7-.4-.4-4.5 2.5-9.1 6.4-35.9 30.2-61.2 70.5-72.5 115.3-9 35.6-8.6 77.5 1.2 112.5 7.6 27.4 21.9 55.4 40 78.3 7.2 9.2 25.7 27.7 34.9 35 22.2 17.4 48.7 31.2 75.4 39.2 31.4 9.4 73 11.1 105.8 4.4 66.4-13.5 122.8-56.9 153-117.4 14.6-29.3 21.7-57.5 22.9-90.5 2.7-77.2-33.9-148.6-98.2-191.5-25.9-17.3-53.2-28.2-85.5-34-12.9-2.4-51.7-3-65-1z"/><path d="M19.6 438.1c-2.5 2.8-4.6 5.9-4.6 6.8 0 .9-1.6 34.2-3.5 74.1-2 39.9-3.3 73.5-3 74.7.4 1.6 1.3 2.3 3 2.3 1.4 0 2.5-.6 2.5-1.3 0-2.1 3.2-4.6 6.8-5.3 3.1-.6 3.1-.7 1.6-3.6-1.3-2.6-1.3-5.6.6-29.9l2.1-27-2.5-3c-1.4-1.6-2.8-4.5-3.2-6.4-.3-1.9.8-22 2.5-44.7 1.7-22.6 2.9-41.3 2.7-41.5-.2-.2-2.4 1.9-5 4.8z"/></svg>