<svg xmlns="http://www.w3.org/2000/svg" viewBox="0 0 1000 580">
  <defs>
    <style>
      .a {
        fill: #477be4;
      }
    </style>
  </defs>
  <g>
    <path class="a" d="M985.37,372.61c-.46-1.58-3.79-3.05-5.55-5.55,1.29-2.79,4.31-4.82,4.42-6.46.22-2.07.29-2.8-1-10s-1.48-7.4-2.34-9.27c-.74-1.5-4.26-2.38-6.42-4.53.81-3,3.4-5.49,3.25-7.11-.16-2-.23-2.8-2.71-9.65s-2.73-7.05-3.9-8.72c-1-1.33-4.62-1.6-7.12-3.35.28-3.05,2.39-6,2-7.55-.51-2-.7-2.71-4.35-9s-3.94-6.44-5.38-7.89c-1.19-1.17-4.82-.8-7.59-2.07-.27-3.06,1.3-6.29.61-7.79-.84-1.87-1.15-2.55-5.84-8.14s-5-5.67-6.67-6.85c-1.33-.9-4.71,0-7.62-.63l-.31-.31c-.68-2.91.27-6.27-.65-7.58-1.15-1.69-1.58-2.29-7.17-7s-5.88-4.73-7.75-5.59c-1.53-.68-4.8.9-7.86.65-1.27-2.77-.91-6.37-2.06-7.54-1.46-1.47-2-2-8.29-5.62s-6.62-3.64-8.61-4.16c-1.62-.41-4.54,1.73-7.57,2-1.78-2.54-2-6.15-3.38-7.09-1.66-1.2-2.27-1.62-9.14-4.11s-7.14-2.45-9.2-2.59c-1.66-.15-4.19,2.48-7.14,3.27-2.16-2.18-3-5.7-4.51-6.4-1.87-.88-2.54-1.17-9.73-2.45s-7.46-1.13-9.51-.95c-1.64.14-3.67,3.16-6.44,4.48-2.52-1.77-4-5.07-5.59-5.51-2-.55-2.68-.73-10-.73s-7.55.18-9.54.73c-1.59.44-3.06,3.74-5.58,5.52-2.8-1.31-4.82-4.35-6.42-4.42-2.08-.23-2.82-.29-10,1s-7.38,1.47-9.32,2.37c-1.47.74-2.35,4.25-4.51,6.4-3-.8-5.47-3.45-7.08-3.23-2.11.16-2.85.23-9.68,2.71s-7,2.7-8.72,3.94c-1.35,1-1.6,4.6-3.34,7.08-2.75-.23-5.23-1.78-6.87-1.81L685,136.58v0l6.16-2.79-28.53-63c5.73-9.47,12-21,12.17-33.33a29.48,29.48,0,0,0-.7-5.9,9.1,9.1,0,0,0,1.11-2.33s0,0,.11-.38a10.36,10.36,0,0,0,.18-1.8c.31-3.54-2.64-8.2-5.64-9.47A14.53,14.53,0,0,0,662.75,16c-6.85.13-14.44,2.34-23,4.35-8.45,2.05-17.42,3.92-23.37,3.91a19.61,19.61,0,0,1-3.65-.31v0a8.64,8.64,0,1,0-3,17,39.6,39.6,0,0,0,6.68.54A83.32,83.32,0,0,0,630.8,40c-2.43,1.67-6.35,2.95-13.83,3.06a78.13,78.13,0,0,1-8.38-.53,4.34,4.34,0,0,0-1,8.62,88,88,0,0,0,9.37.55h.13c10.21,0,16.75-2.6,20.85-6.38a25.14,25.14,0,0,0,5.61-8.09h.11c4.87-1.24,9.62-2.34,13.23-3.07a7.77,7.77,0,0,1,.61,3.36c.11,4.22-2.37,11.43-6,18.1a133.24,133.24,0,0,1-11,17c-1.92,2.62-3.16,4.06-3.16,4.06a11.25,11.25,0,0,0-3,5.57l-5,2.29,3.4,7.49-32.67,15.14c-11.9,5.33-25.35,11.89-39.31,19.33l-44.17,22.85c-30.08,15.52-59.71,31.76-82.11,43.6l-29.83,16.15L350.86,69.62c-.53-2-1.75-6.1-11.62-10.68l2.16-.11A21.84,21.84,0,0,0,353.16,54l13.52-12.19c4,.07,7,.29,7.77.72,2.62,1.49,18.64,1.87,24.59,1.87s15.3.38,16.79.38,6-3.73-1.11-8.2-17.53-13.43-48.46-13.43H274.55a59.43,59.43,0,0,1-15.64-2.23c-5.83-1.75-26.85-3-30.19-1.49s-2.75,5.08,3,10.46c3.84,3.58,10.6,10,14.4,11.9a141.5,141.5,0,0,0,24.66,8.4l6,6.6a16.73,16.73,0,0,0,11.2,4.85,4.27,4.27,0,0,0,.52,0l18.75-1a17.23,17.23,0,0,0-.21,2.72c0,7.91,4.1,14.58,15.08,14.83a35.2,35.2,0,0,0,13.23-2.84l.18.07L396.9,234.21a108.11,108.11,0,0,0-18.19,8.32,8.85,8.85,0,0,0-3.64,1.49l-36.64,26.45c-.79-1.08-1.92-2.5-4-5-4.67-5.59-5-5.66-6.67-6.85-1.33-.9-4.71.05-7.62-.63l-.31-.31c-.68-2.91.27-6.27-.64-7.58-1.15-1.69-1.59-2.29-7.18-7s-5.88-4.73-7.75-5.59c-1.53-.68-4.8.9-7.85.65-1.28-2.77-.92-6.37-2.07-7.53-1.46-1.48-2-2-8.29-5.63s-6.62-3.63-8.61-4.16c-1.62-.41-4.53,1.73-7.57,2-1.78-2.54-2-6.15-3.38-7.09-1.66-1.2-2.27-1.61-9.14-4.11s-7.13-2.45-9.2-2.59c-1.66-.15-4.19,2.48-7.14,3.27-2.16-2.18-3-5.7-4.51-6.4-1.87-.88-2.54-1.17-9.73-2.45s-7.46-1.13-9.51-.95c-1.64.15-3.67,3.17-6.44,4.48-2.51-1.76-4-5.07-5.59-5.5-2-.56-2.68-.74-10-.74s-7.55.18-9.54.74c-1.58.43-3.06,3.74-5.58,5.52-2.8-1.32-4.81-4.35-6.42-4.43-2.08-.23-2.82-.28-10,1s-7.37,1.48-9.32,2.38c-1.47.73-2.35,4.24-4.51,6.4-3-.81-5.46-3.46-7.08-3.24-2.11.16-2.84.23-9.68,2.71s-7,2.7-8.72,3.94c-1.34,1-1.6,4.61-3.34,7.09-3.09-.27-6-2.43-7.55-2-2,.52-2.77.7-9.06,4.35s-6.42,3.9-7.91,5.41c-1.15,1.17-.78,4.78-2,7.53-3.09.27-6.34-1.36-7.78-.63-1.92.88-2.61,1.19-8.16,5.87s-5.65,4.94-6.87,6.68c-.9,1.35.07,4.75-.61,7.63a2.66,2.66,0,0,1-.24.23c-2.95.72-6.34-.31-7.62.68-1.74,1.17-2.36,1.62-7,7.16s-4.71,5.86-5.59,7.8c-.68,1.5.92,4.79.65,7.81-2.81,1.29-6.4.88-7.5,2.06-1.51,1.48-2,2-5.68,8.31s-3.6,6.58-4.14,8.61c-.41,1.62,1.73,4.57,2,7.57-2.56,1.78-6.17,2-7.07,3.36-1.2,1.73-1.63,2.34-4.12,9.17s-2.42,7.12-2.62,9.23c-.13,1.65,2.5,4.19,3.31,7.12-2.2,2.17-5.74,3-6.37,4.53-.9,1.89-1.18,2.57-2.46,9.72s-1.15,7.45-1,9.53c.18,1.66,3.2,3.71,4.48,6.42-1.78,2.54-5.09,4-5.47,5.58-.57,2-.75,2.73-.74,10s.15,7.55.67,9.55c.47,1.58,3.81,3.07,5.56,5.57-1.34,2.79-4.34,4.82-4.43,6.44-.21,2.07-.29,2.8,1,10s1.46,7.39,2.34,9.29c.73,1.5,4.28,2.39,6.41,4.53-.82,3-3.43,5.47-3.23,7.09.14,2.1.21,2.84,2.7,9.65s2.73,7.05,3.93,8.74c1,1.33,4.62,1.6,7.11,3.33-.29,3.09-2.45,6-2,7.55.51,2,.7,2.73,4.35,9s3.92,6.44,5.38,7.91c1.17,1.14,4.82.78,7.57,2,.27,3.1-1.35,6.35-.59,7.79.84,1.92,1.15,2.57,5.86,8.14s4.94,5.67,6.63,6.87c1.37.92,4.82-.05,7.75.68l.13.11c.73,3-.25,6.38.72,7.68,1.15,1.74,1.6,2.32,7.17,7s5.88,4.73,7.77,5.61c1.51.67,4.78-.91,7.82-.64,1.28,2.8.9,6.4,2.08,7.53,1.44,1.49,2,2,8.29,5.61s6.6,3.61,8.62,4.17c1.61.38,4.54-1.73,7.58-2,1.76,2.54,2,6.15,3.38,7.07,1.69,1.22,2.3,1.62,9.15,4.1s7.12,2.45,9.23,2.62c1.63.11,4.15-2.49,7.1-3.29,2.18,2.2,3,5.7,4.57,6.37,1.87.92,2.53,1.19,9.69,2.46s7.44,1.12,9.53,1c1.65-.18,3.68-3.18,6.43-4.49,2.52,1.78,4,5.08,5.6,5.48,2,.56,2.69.72,10,.72s7.56-.18,9.55-.68c1.62-.45,3.08-3.76,5.57-5.54,2.79,1.31,4.82,4.33,6.46,4.42,2,.22,2.79.25,10-1s7.37-1.49,9.3-2.33c1.49-.76,2.37-4.26,4.51-6.42,3,.81,5.48,3.43,7.12,3.25,2.07-.16,2.8-.25,9.62-2.71s7-2.73,8.74-3.9c1.33-1,1.6-4.62,3.34-7.12,3.07.28,6,2.41,7.59,2,2-.53,2.69-.74,9-4.35s6.43-3.94,7.92-5.38c1.15-1.21.78-4.82,2-7.59,3.07-.25,6.32,1.35,7.82.61,1.87-.86,2.57-1.17,8.11-5.84s5.64-5,6.88-6.67c.9-1.37-.07-4.78.65-7.7a1,1,0,0,0,.16-.18c3-.71,6.37.27,7.7-.7,1.7-1.18,2.32-1.61,7-7.17s4.71-5.88,5.61-7.75c.67-1.55-.93-4.8-.68-7.84,2.8-1.29,6.4-.9,7.55-2.1,1.47-1.44,2-2,5.61-8.29s3.63-6.6,4.19-8.6c.39-1.63-1.74-4.54-2-7.6,2.53-1.76,6.14-2,7.06-3.38,1.21-1.69,1.64-2.3,4.12-9.13,0-.09,0-.13.09-.24l52-16.45a36.77,36.77,0,0,0,9.28,1.26,39,39,0,0,0,15.57-3.35c3.23-1.56,4.4-4.42,3.41-7.13a35.4,35.4,0,0,0,5.15-3.71c2.24,1.87,5.34,1.64,7.85-1a39.75,39.75,0,0,0,8-13.77,39.23,39.23,0,0,0,1.77-13.43,84.85,84.85,0,0,0,19-12.3,142.6,142.6,0,0,0,19.74-22.54c6-8.6,11.54-16.76,17.44-26.69,10.61-18.55,21.94-38.33,33.24-58.11,11.49-19.56,22.32-39.93,32.44-59.09l14.67-27.57c2-3.83,4-7.53,5.9-11.14q3.66-5.88,7.06-11.31c2.31-3.71,4.3-3.8,6-5.92l2.53-2.55,3.78-2.36c4.85-3.09,8.84-6,13.32-7.76l8-3.89,6,13.32,6.14-2.78,39.88,88.4a14.15,14.15,0,0,1-1,4c-3.09.27-6.34-1.37-7.78-.63-1.92.88-2.61,1.19-8.16,5.86s-5.65,5-6.87,6.69c-.9,1.35.07,4.75-.61,7.62a2.72,2.72,0,0,1-.24.24c-3,.72-6.34-.31-7.62.68-1.74,1.17-2.36,1.62-7,7.16s-4.71,5.86-5.59,7.8c-.69,1.49.92,4.78.65,7.8-2.81,1.3-6.41.88-7.5,2.07-1.51,1.48-2,2-5.68,8.31s-3.6,6.58-4.14,8.61c-.41,1.62,1.73,4.57,2,7.57-2.56,1.78-6.17,2-7.07,3.36-1.2,1.73-1.64,2.34-4.12,9.17s-2.42,7.12-2.62,9.23c-.13,1.65,2.5,4.18,3.31,7.11-2.2,2.18-5.74,3-6.37,4.54-.9,1.88-1.18,2.57-2.46,9.72s-1.15,7.45-1,9.53c.18,1.66,3.2,3.71,4.48,6.42-1.78,2.54-5.09,4-5.47,5.57-.57,2-.75,2.74-.74,10s.15,7.55.67,9.55c.47,1.58,3.81,3.07,5.55,5.57-1.33,2.79-4.33,4.82-4.42,6.44-.21,2.06-.29,2.8,1,10s1.45,7.38,2.34,9.29c.73,1.49,4.27,2.39,6.41,4.53-.82,3-3.43,5.47-3.23,7.09.14,2.1.21,2.84,2.7,9.65s2.73,7.05,3.93,8.74c1,1.33,4.62,1.6,7.1,3.32-.28,3.1-2.44,6-1.94,7.56.51,2,.7,2.73,4.35,9s3.92,6.44,5.38,7.91c1.17,1.13,4.82.77,7.57,2.05.27,3.09-1.35,6.35-.59,7.79.84,1.92,1.15,2.57,5.86,8.14s4.94,5.66,6.63,6.87c1.37.92,4.82-.06,7.75.68l.13.11c.73,3-.25,6.38.72,7.68,1.15,1.74,1.6,2.32,7.17,7s5.88,4.73,7.77,5.61c1.51.67,4.78-.92,7.82-.65,1.27,2.81.9,6.4,2.08,7.54,1.44,1.49,2,2,8.29,5.61s6.6,3.61,8.61,4.17c1.62.38,4.55-1.73,7.59-2,1.76,2.54,2,6.15,3.38,7.07,1.69,1.22,2.3,1.62,9.15,4.1s7.12,2.44,9.23,2.62c1.63.11,4.15-2.5,7.1-3.29,2.17,2.2,3,5.7,4.57,6.37,1.87.91,2.53,1.18,9.69,2.46s7.44,1.12,9.53,1c1.65-.18,3.68-3.18,6.43-4.5,2.52,1.78,4,5.09,5.59,5.49,2,.56,2.7.72,10,.72s7.55-.18,9.55-.69c1.62-.45,3.08-3.75,5.57-5.53,2.79,1.31,4.82,4.33,6.46,4.42,2.05.22,2.79.25,10-1s7.37-1.49,9.3-2.33c1.49-.76,2.37-4.27,4.51-6.42,3,.81,5.48,3.43,7.12,3.25,2.07-.16,2.8-.25,9.62-2.71s7-2.74,8.74-3.91c1.33-1,1.6-4.62,3.34-7.12,3.07.29,6,2.41,7.59,2,2-.52,2.69-.73,9-4.35s6.44-3.93,7.93-5.37c1.15-1.21.78-4.82,2-7.59,3.07-.25,6.32,1.35,7.82.61,1.87-.86,2.57-1.17,8.11-5.84s5.64-5,6.88-6.67c.9-1.37-.07-4.79.65-7.7a1.45,1.45,0,0,0,.16-.18c3-.72,6.37.27,7.7-.7,1.7-1.19,2.32-1.62,7-7.17s4.71-5.88,5.61-7.75c.67-1.55-.93-4.8-.68-7.84,2.8-1.3,6.4-.9,7.55-2.1,1.47-1.44,2-2,5.61-8.29s3.63-6.6,4.19-8.6c.39-1.63-1.75-4.55-2-7.6,2.53-1.77,6.14-2,7.06-3.38,1.21-1.69,1.64-2.3,4.12-9.14s2.43-7.12,2.62-9.2c.11-1.67-2.51-4.19-3.3-7.14,2.17-2.16,5.68-3,6.36-4.53.88-1.87,1.19-2.55,2.46-9.73s1.15-7.44,1-9.49c-.18-1.67-3.2-3.69-4.49-6.44,1.78-2.52,5.09-4,5.48-5.57.56-2,.76-2.73.74-10C986.08,374.88,985.9,374.63,985.37,372.61ZM329.59,55c-2.27-3.76-6-6.26-10.2-6.26-4.6,0-8.61,3-10.75,7.36l-20.44,1A12,12,0,0,1,280,53.71l-1.87-2.05a61.59,61.59,0,0,0,10.57.9c16.27-.25,22.74-8.2,28.69-9.33s17.53-1.12,17.53-1.12c4.23,0,15.63-.38,25.12-.39l-9.91,8.9a17.24,17.24,0,0,1-9,3.72Zm47.46,325.12c0-5-.21-5.68-.66-7.44-.47-1.58-3.8-3.06-5.56-5.56,1.3-2.78,4.32-4.81,4.42-6.45a16.64,16.64,0,0,0-.25-5.43l24.94.36a42.51,42.51,0,0,0-7.6,9.22c-1.87,3.49-.74,6.71,2.26,8.17a37.18,37.18,0,0,0-1.85,5.93,5,5,0,0,0-4.87,1.35Zm-141.46-1.54a38.28,38.28,0,0,0-2.19-10.07l20.73-15,78.05,1.1a138.38,138.38,0,0,1,2.64,25ZM222.14,353l1.87,0-1,.7C222.75,353.52,222.45,353.27,222.14,353Zm38.12-4,54.26-39.16a138.8,138.8,0,0,1,16.56,40.15Zm177.83-40.89L435.63,341a6.56,6.56,0,0,0,2.54,5.61c-.09,0-.4-.09-.4-.09-3.79-.66-6.47,1.26-7,4.46-.88-.05-1.71-.27-2.61-.27-.3,0-.57.08-.88.09l4.7-96.46a43.13,43.13,0,0,1,6.24-7.14l-3.91,51.89A11.06,11.06,0,0,0,438.09,308.17Zm-31.32-43.83s.38.23,1,.56l3,83.75a40.53,40.53,0,0,0-4.87,2.46l-31.7-.43v0c-1.24-7.15-1.48-7.41-2.34-9.28-.74-1.49-4.26-2.37-6.42-4.53.81-3,3.4-5.48,3.26-7.1-.17-2.05-.24-2.8-2.72-9.65s-2.73-7.05-3.9-8.72c-1-1.33-4.62-1.6-7.12-3.35.29-3.05,2.39-6,2-7.55-.5-2-.7-2.71-4.35-9a58.23,58.23,0,0,0-3.85-6.21l34.61-25C395.25,254.4,406.77,264.34,406.77,264.34ZM195.57,521.79A139.43,139.43,0,1,1,304.23,295.14l-74.11,53.51L215,348.43a36.7,36.7,0,1,0-15.82,69.8c.48,0,.93-.13,1.4-.15a11.88,11.88,0,1,0,16.83,10.79,11.75,11.75,0,0,0-10.2-11.58,36.7,36.7,0,0,0,25.48-20.82l101.48,1.12A138.57,138.57,0,0,1,313.84,456l-81.38,25.76a11.78,11.78,0,0,0,1.29-5.19,11.9,11.9,0,1,0-11.9,11.9,11.56,11.56,0,0,0,3.54-.72l.29.86L310,461.86A139.1,139.1,0,0,1,195.57,521.79Zm170-93.84c2.17-2.15,5.68-3,6.36-4.53.88-1.87,1.19-2.55,2.47-9.72s1.15-7.45,1-9.5c-.18-1.62-3-3.58-4.33-6.2l16.25.18c.17.57.2,1.1.38,1.65a39.68,39.68,0,0,0,8,13.78c2.66,2.76,6,2.8,8.31.57a35.27,35.27,0,0,0,4.93,3.76c-1.3,2.64-.4,5.41,2.48,7.16l-43.24,13.68a17.11,17.11,0,0,0,.72-3.69C368.94,433.42,366.32,430.9,365.53,428ZM577.11,166.26c-4.13,8.74-8.52,17.94-13.05,27.46-9,19.05-18.63,39.42-29.34,59.69C524.31,273.69,513.9,294,504.13,313c-4.6,8.67-10.25,17.89-15.12,25.6a136.09,136.09,0,0,1-15.39,19.89,73.08,73.08,0,0,1-10.16,8,7.74,7.74,0,0,0-.5-1.67,37.48,37.48,0,0,0-20-16.82,6.63,6.63,0,0,0,6.2-6l2.47-32.85a11,11,0,0,0,5.12-8.37l5.13-68.18a11.24,11.24,0,0,0-10.36-12.05,10.57,10.57,0,0,0-9.6,4.46h-8.65a207.11,207.11,0,0,0-20.64,4.32l-2.79-7.21,32-14.82c23.05-10.41,53.58-24.74,84.43-38.28l45.27-19.92c6.73-3.06,13.16-5.86,19.37-8.45l-6.78,11.29Q580.66,158.89,577.11,166.26ZM804.55,521.79A139.3,139.3,0,0,1,721,270.94l60.16,133.41a11.16,11.16,0,0,0,20.82-1.1,19.75,19.75,0,0,0,2.5.5,21.34,21.34,0,1,0-15.26-36.21L740.15,258.77a139.4,139.4,0,1,1,64.4,263Z"/>
    <rect class="a" x="445.42" y="253.31" width="48.44" height="13.48" transform="translate(175.22 708.95) rotate(-85.72)"/>
  </g>
</svg>
