<svg xmlns="http://www.w3.org/2000/svg" viewBox="0 0 1000 580">
  <defs>
    <style>
      .a {
        fill: #477be4;
      }
    </style>
  </defs>
  <g>
    <path class="a" d="M229.4,360.42a76,76,0,0,0-76,75.95c0,42.73,33.23,76,76,76a76,76,0,1,0,0-151.91Zm0,126.59c-28.48,0-50.63-22.15-50.63-50.64s22.15-50.63,50.63-50.63S280,407.89,280,436.37,256.31,487,229.4,487Z"/>
    <path class="a" d="M732.62,164.2C712.05,138.88,607.6,17,503.16,17H351.25C308.53,17,196.17,59.76,144,184.77c-20.57,11.08-98.11,57-115.51,74.37-1.59,3.17-3.17,6.33-3.17,9.5V436.37c0,6.33,6.33,12.66,12.66,12.66h66.46c6.33,63.3,60.13,113.94,125,113.94h0c64.88,0,118.68-49.06,125-113.94H617.1c6.33,63.3,60.13,113.94,125,113.94h0c64.87,0,118.67-49.06,125-113.94h95c6.33,0,12.66-6.33,12.66-12.66V251.23c-1.58-3.16-1.58-4.75-3.17-7.91C933.59,197.43,767.43,168.94,732.62,164.2ZM229.4,537.65c-55.38,0-101.27-45.89-101.27-101.28S174,335.1,229.4,335.1,330.68,381,330.68,436.37,284.79,537.65,229.4,537.65Zm512.71,0c-55.38,0-101.27-45.89-101.27-101.28S686.73,335.1,742.11,335.1,843.39,381,843.39,436.37,797.5,537.65,742.11,537.65ZM947.83,423.72H867.12c-6.33-63.3-60.13-113.94-125-113.94s-118.68,49.06-125,113.94H354.42c-6.33-63.3-60.14-113.94-125-113.94s-118.68,49.06-125,113.94H50.59V273.38C71.16,256,136,218,159.78,203.76c3.16-1.58,4.75-3.17,4.75-6.33C212,78.75,318,40.77,349.67,40.77H501.58c101.28,0,212.05,140.83,212.05,142.42a8.7,8.7,0,0,0,7.91,4.74c52.22,7.92,191.47,34.82,226.29,68V423.72h0Z"/>
    <path class="a" d="M507.91,66.09H340.17c-3.16,0-87,20.57-128.17,121.84A9.76,9.76,0,0,0,213.58,199c1.58,3.17,6.33,6.33,11.08,6.33H669.32c4.75,0,9.49-3.16,11.08-6.33s1.58-9.49-1.59-12.66C634.51,129.38,552.22,66.09,507.91,66.09ZM243.65,180c34.81-69.63,91.78-85.45,101.27-88.61H509.49c28.49,0,88.62,41.14,132.93,88.61Z"/>
    <path class="a" d="M742.11,360.42a76,76,0,0,0-76,75.95c0,42.73,33.24,76,76,76a76,76,0,1,0,0-151.91Zm0,126.59c-28.48,0-50.64-22.15-50.64-50.64s22.16-50.63,50.64-50.63,50.64,22.15,50.64,50.63S770.6,487,742.11,487Z"/>
  </g>
</svg>
