<svg class="hide-until-rendered-inline" xmlns="http://www.w3.org/2000/svg" viewBox="0 0 1000 1000">
  <path class="filled" d="M858.76,500q67.05-57.17,126.18-132.2l-36.67-28.86Q889.2,414,821.7,470.21a740.8,740.8,0,0,0-97.05-62.28c-87-46.58-179-72.54-273.22-77.16-164.1-8-323.54,51.23-426.52,158.56l-9.84,10.26s-.66.49,9.84,11.08C121.69,611.54,268.32,670,421.84,670c9.83,0,19.72-.24,29.59-.72,94.26-4.62,186.19-30.58,273.22-77.15a741.93,741.93,0,0,0,97.05-62.29Q889,585.86,948.27,661.06l36.67-28.86Q926,557.29,858.76,500ZM702.64,550.93c-80.9,43.29-166.18,67.42-253.49,71.69-76,3.72-152.74-8.3-221.88-34.77C172,566.7,122,536.6,81,500c41-36.6,91-66.69,146.24-87.85,69.14-26.47,145.86-38.49,221.88-34.77,87.31,4.27,172.59,28.39,253.49,71.69A690.17,690.17,0,0,1,783.53,500,690.17,690.17,0,0,1,702.64,550.93Z"/>
</svg>
