<?xml version="1.0" encoding="utf-8"?>
<!-- Generator: Adobe Illustrator 25.2.0, SVG Export Plug-In . SVG Version: 6.00 Build 0)  -->
<svg version="1.1" id="Layer_1" xmlns="http://www.w3.org/2000/svg" xmlns:xlink="http://www.w3.org/1999/xlink" x="0px" y="0px"
	 viewBox="0 0 1000 1000" style="enable-background:new 0 0 1000 1000;" xml:space="preserve">
<style type="text/css">
	.st0{fill:#211E5A;}
</style>
<g>
	<path class="st0" d="M235.2,570.4c-41.1,0-76,33.2-76,76c0,42.7,33.2,76,76,76c41.1,0,76-33.2,76-76
		C311.2,603.6,276.4,570.4,235.2,570.4z M235.2,697c-28.5,0-50.6-22.2-50.6-50.6c0-28.5,22.2-50.6,50.6-50.6s50.6,22.2,50.6,50.6
		C285.9,674.9,262.1,697,235.2,697z"/>
	<path class="st0" d="M738.4,374.2C717.9,348.9,613.4,227,509,227H357.1c-42.7,0-155.1,42.7-207.3,167.7
		c-20.6,11.1-98.1,57-115.5,74.4c-1.6,3.2-3.2,6.3-3.2,9.5v167.7c0,6.3,6.3,12.7,12.7,12.7h66.5c6.3,63.3,60.1,113.9,125,113.9h0
		c64.9,0,118.7-49.1,125-113.9h262.7c6.3,63.3,60.1,113.9,125,113.9h0c64.9,0,118.7-49.1,125-113.9h94.9c6.3,0,12.7-6.3,12.7-12.7
		V461.2c-1.6-3.2-1.6-4.7-3.2-7.9C939.4,407.4,773.3,378.9,738.4,374.2z M235.2,747.6c-55.4,0-101.3-45.9-101.3-101.3
		s45.9-101.3,101.3-101.3S336.5,591,336.5,646.4S290.6,747.6,235.2,747.6z M747.9,747.6c-55.4,0-101.3-45.9-101.3-101.3
		s45.9-101.3,101.3-101.3S849.2,591,849.2,646.4S803.3,747.6,747.9,747.6z M953.7,633.7H873c-6.3-63.3-60.1-113.9-125-113.9
		s-118.7,49.1-125,113.9H360.2c-6.3-63.3-60.1-113.9-125-113.9s-118.7,49.1-125,113.9H56.4V483.4C77,466,141.9,428,165.6,413.8
		c3.2-1.6,4.7-3.2,4.7-6.3c47.5-118.7,153.5-156.7,185.1-156.7h151.9c101.3,0,212,140.8,212,142.4c1.6,3.2,4.7,4.7,7.9,4.7
		c52.2,7.9,191.5,34.8,226.3,68V633.7h1.6H953.7z"/>
	<path class="st0" d="M513.7,276.1H349.2c-1.6,0-1.6,0-3.2,0c-3.2,0-87,20.6-128.2,121.8c-1.6,3.2-1.6,7.9,1.6,11.1
		c1.6,3.2,6.3,6.3,11.1,6.3h444.7c4.7,0,9.5-3.2,11.1-6.3c1.6-3.2,1.6-9.5-1.6-12.7C640.3,339.4,558.1,276.1,513.7,276.1z
		 M249.5,390c34.8-69.6,91.8-85.5,101.3-88.6h164.6c28.5,0,88.6,41.1,132.9,88.6H249.5z"/>
	<path class="st0" d="M747.9,570.4c-41.1,0-76,33.2-76,76c0,42.7,33.2,76,76,76c41.1,0,76-33.2,76-76
		C823.9,603.6,789.1,570.4,747.9,570.4z M747.9,697c-28.5,0-50.6-22.2-50.6-50.6c0-28.5,22.2-50.6,50.6-50.6
		c28.5,0,50.6,22.2,50.6,50.6C798.6,674.9,776.4,697,747.9,697z"/>
</g>
</svg>
