<svg xmlns="http://www.w3.org/2000/svg" viewBox="0 0 1000 1000">
  <defs>
    <style>
      .a {
        fill: #211e5a;
      }
    </style>
  </defs>
  <path class="a" d="M905.58,466c-1.45-75.65-61.8-137.77-136.46-142.71A146.18,146.18,0,0,0,594,217.67a146,146,0,0,0-219.5-8.87,147.13,147.13,0,0,0-24.61-2.08A146.23,146.23,0,0,0,206.07,327.05,145.81,145.81,0,0,0,180.76,602l4,1.77c28,12.42,43.88,20.94,43.88,51.44v45.37c0,75.05,60.89,136.11,135.73,136.11S500.07,775.6,500.07,700.55V634.92A40,40,0,0,0,532,595.74V572.49a27.72,27.72,0,0,0,9.93-21.27v-2.49c0-20,7.57-39.71,21.31-55.6a104.63,104.63,0,0,0-5.64-142.74A104.28,104.28,0,0,0,406,493.43a84.37,84.37,0,0,1,21,55.3v2.49A27.71,27.71,0,0,0,437,572.49v23.25a40,40,0,0,0,31.88,39.18v65.63c0,57.8-46.89,104.82-104.52,104.82s-104.53-47-104.53-104.82V655.18c0-52.37-36.1-68.37-62.47-80l-3.87-1.73a115.2,115.2,0,0,1-67.62-112.69,113.78,113.78,0,0,1,96.55-105,15.63,15.63,0,0,0,13.13-14C241.06,283.55,291.28,238,349.88,238a115.87,115.87,0,0,1,26.68,3.12A15.55,15.55,0,0,0,392.11,236a114.89,114.89,0,0,1,183,8.52,15.56,15.56,0,0,0,17.58,6A115,115,0,0,1,741,341.2a15.67,15.67,0,0,0,15.72,13.12l1.37,0c.47,0,.94,0,1.42,0,62.14,0,113.66,50.39,114.85,112.34C875,497,863.32,525.87,841.57,548a118.84,118.84,0,0,1-84.19,35.4H688.84a15.65,15.65,0,0,0,0,31.29h68.54A150.19,150.19,0,0,0,863.79,570C891.49,541.78,906.33,504.86,905.58,466Zm-476.07,6.86a73.17,73.17,0,0,1,53.87-121.2,73,73,0,0,1,74,73.13,73.25,73.25,0,0,1-17.79,47.87c-18.41,21.3-28.66,47.9-28.92,75H458.25A115.81,115.81,0,0,0,429.51,472.84ZM468.19,579h32.57v16.79a8.68,8.68,0,0,1-8.67,8.69H476.85a8.68,8.68,0,0,1-8.66-8.69Z"/>
</svg>
